#!OML:ASF F:\VICON\USERDATA\INSTALL\rory3\rory3.ASF
:FULLY-SPECIFIED
:DEGREES
4457
root 14.4817 17.7801 -10.0344 937.784 -93.6403 -1656.79
lowerback 11.9567 2.03003 1.66481
upperback 0.955736 2.86893 -0.052109
thorax -5.61335 1.34959 -1.46411
lowerneck -19.7779 -5.32603 -11.3574
upperneck 32.4115 -7.63442 8.74093
head 15.5429 -3.67749 4.14174
rclavicle -6.23687e-015 -2.38542e-015
rhumerus -34.22 -12.2459 -81.0139
rradius 31.0334
rwrist 5.00782
rhand -19.5356 6.57591
rfingers 7.12502
rthumb 6.78812 -23.2953
lclavicle -6.23687e-015 -2.38542e-015
lhumerus -36.0138 3.45668 84.4021
lradius 36.9767
lwrist -3.26184
lhand -16.8885 23.8478
lfingers 7.12502
lthumb 9.34294 53.6207
rfemur 1.40542 0.413715 28.9713
rtibia 21.6163
rfoot -18.532 -5.87043
rtoes 7.91451
lfemur -26.8724 -4.75548 -18.6274
ltibia 30.8058
lfoot -6.33345 3.7521
ltoes -28.2312
4458
root 14.4183 17.7722 -10.0285 941.019 -93.5871 -1659.74
lowerback 11.7449 2.0254 1.81571
upperback 0.881333 2.88513 -0.00824322
thorax -5.56799 1.35597 -1.49847
lowerneck -19.8778 -5.36984 -11.4009
upperneck 32.3614 -7.64971 8.70969
head 15.5453 -3.68812 4.12989
rclavicle -4.35338e-014 9.74045e-015
rhumerus -33.9068 -11.5353 -81.381
rradius 31.344
rwrist 4.16354
rhand -20.28 6.11886
rfingers 7.12502
rthumb 6.0695 -23.7742
lclavicle -4.35338e-014 9.74045e-015
lhumerus -36.1161 3.44311 84.4385
lradius 36.6796
lwrist -3.42654
lhand -16.9362 24.1213
lfingers 7.12502
lthumb 9.29689 53.8963
rfemur 1.47746 0.477593 29.0612
rtibia 21.3157
rfoot -18.5902 -5.77588
rtoes 7.53351
lfemur -27.0358 -5.01702 -18.5182
ltibia 28.8343
lfoot -5.9265 3.3513
ltoes -27.3944
4459
root 14.3518 17.7679 -10.02 943.632 -93.4487 -1662.31
lowerback 11.7678 2.05403 1.92099
upperback 0.870121 2.93905 0.0175918
thorax -5.5867 1.37977 -1.5404
lowerneck -19.9462 -5.37789 -11.2634
upperneck 32.2742 -7.59855 8.47258
head 15.492 -3.67476 4.00891
rclavicle 2.44008e-014 1.68967e-015
rhumerus -33.6578 -10.5415 -81.8304
rradius 31.8243
rwrist 2.77642
rhand -21.1783 5.46396
rfingers 7.12502
rthumb 5.20217 -24.4522
lclavicle 2.44008e-014 1.68967e-015
lhumerus -36.2337 3.20568 84.5653
lradius 36.3686
lwrist -3.16034
lhand -16.9808 24.0587
lfingers 7.12502
lthumb 9.25391 53.8356
rfemur 1.80311 0.60929 29.0486
rtibia 21.0527
rfoot -18.7075 -5.68365
rtoes 8.02373
lfemur -26.8598 -6.26572 -18.3028
ltibia 26.8618
lfoot -5.39272 3.94204
ltoes -27.2319
4460
root 14.2803 17.7667 -10.0146 945.303 -93.2523 -1663.99
lowerback 11.8235 2.10853 1.85447
upperback 0.862147 3.00533 0.0454433
thorax -5.62867 1.41338 -1.48723
lowerneck -19.8166 -5.33272 -11.2473
upperneck 32.1106 -7.49471 8.37867
head 15.364 -3.64049 3.98187
rclavicle 7.97623e-015 -4.37326e-015
rhumerus -33.4803 -10.0452 -81.9584
rradius 32.2136
rwrist 2.08126
rhand -21.281 5.34913
rfingers 7.12502
rthumb 5.10301 -24.5694
lclavicle 7.97623e-015 -4.37326e-015
lhumerus -36.3352 2.7723 84.8669
lradius 35.9721
lwrist -2.71549
lhand -17.0109 24.144
lfingers 7.12502
lthumb 9.22482 53.9222
rfemur 2.22234 0.751 28.9361
rtibia 20.808
rfoot -18.8742 -5.46483
rtoes 8.93746
lfemur -26.6776 -6.55129 -18.501
ltibia 24.893
lfoot -4.93517 3.73678
ltoes -30.7738
4461
root 14.2066 17.7586 -10.0134 947.693 -93.157 -1666.29
lowerback 11.7275 2.1716 1.87819
upperback 0.855682 3.09164 0.0593905
thorax -5.57836 1.45644 -1.49559
lowerneck -19.7965 -5.36425 -11.2858
upperneck 32.019 -7.51001 8.362
head 15.3198 -3.65118 3.97548
rclavicle -1.65612e-014 2.88238e-015
rhumerus -33.2021 -10.3792 -81.8398
rradius 32.2958
rwrist 2.36244
rhand -21.0707 5.86896
rfingers 7.12502
rthumb 5.30607 -24.0446
lclavicle -1.65612e-014 2.88238e-015
lhumerus -36.4998 3.51568 84.7457
lradius 35.6591
lwrist -3.65154
lhand -16.8605 23.9086
lfingers 7.12502
lthumb 9.36997 53.6804
rfemur 2.56087 0.755559 28.9107
rtibia 20.4661
rfoot -18.9415 -5.16276
rtoes 8.90819
lfemur -26.6993 -5.71814 -18.8548
ltibia 23.0066
lfoot -4.87677 2.2236
ltoes -33.5983
4462
root 14.1336 17.7537 -10.0079 951.136 -93.1317 -1669.61
lowerback 11.6316 2.20424 2.03406
upperback 0.852267 3.15533 0.0889941
thorax -5.51941 1.48546 -1.55772
lowerneck -19.8795 -5.33905 -11.1497
upperneck 31.9445 -7.46881 8.28135
head 15.2865 -3.62216 3.92202
rclavicle -4.05148e-014 5.46658e-015
rhumerus -32.8714 -10.5662 -81.8419
rradius 32.3617
rwrist 2.53803
rhand -21.0069 6.33526
rfingers 7.12502
rthumb 5.36769 -23.5768
lclavicle -4.05148e-014 5.46658e-015
lhumerus -36.6355 3.76737 84.6975
lradius 35.4376
lwrist -4.00063
lhand -16.3322 23.6669
lfingers 7.12502
lthumb 9.87967 53.4151
rfemur 2.87968 0.623355 28.9327
rtibia 20.0589
rfoot -18.9641 -4.81023
rtoes 8.55502
lfemur -26.733 -5.36752 -18.9339
ltibia 21.2559
lfoot -4.84072 0.88883
ltoes -33.9274
4463
root 14.0567 17.7507 -10.0043 955.901 -93.1134 -1674.31
lowerback 11.5343 2.23287 2.18499
upperback 0.864211 3.21321 0.141407
thorax -5.44511 1.51226 -1.59161
lowerneck -19.8671 -5.28897 -11.0564
upperneck 31.8425 -7.40934 8.26347
head 15.2217 -3.58549 3.90683
rclavicle -5.34234e-016 -1.49089e-015
rhumerus -32.4976 -10.6096 -81.9446
rradius 32.4021
rwrist 2.67392
rhand -21.1766 6.71006
rfingers 7.12502
rthumb 5.2038 -23.2061
lclavicle -5.34234e-016 -1.49089e-015
lhumerus -36.7022 3.65772 84.7006
lradius 35.0732
lwrist -3.88021
lhand -15.9999 23.8003
lfingers 7.12502
lthumb 10.2003 53.533
rfemur 3.30686 0.555213 29.0181
rtibia 19.6152
rfoot -18.9944 -4.54372
rtoes 8.28779
lfemur -26.7041 -5.65271 -18.7425
ltibia 19.683
lfoot -4.61951 0.178057
ltoes -33.582
4464
root 13.9765 17.746 -10.0032 961.221 -93.0646 -1679.61
lowerback 11.4531 2.315 2.27979
upperback 0.878839 3.33484 0.195768
thorax -5.37742 1.57166 -1.60232
lowerneck -19.7123 -5.35068 -11.228
upperneck 31.6628 -7.48557 8.39648
head 15.1291 -3.62099 3.97438
rclavicle -1.54804e-014 -2.98177e-016
rhumerus -32.1041 -10.8437 -81.9419
rradius 32.3531
rwrist 2.92768
rhand -21.2995 7.08372
rfingers 7.12502
rthumb 5.08512 -22.8353
lclavicle -1.54804e-014 -2.98177e-016
lhumerus -36.7469 3.51424 84.7799
lradius 34.5737
lwrist -3.70397
lhand -16.736 24.1352
lfingers 7.12502
lthumb 9.49011 53.9016
rfemur 3.83076 0.689323 29.1143
rtibia 19.1238
rfoot -18.9582 -4.33723
rtoes 8.35187
lfemur -26.6883 -5.87542 -18.6075
ltibia 18.3224
lfoot -4.47792 -0.325169
ltoes -34.1206
4465
root 13.897 17.7443 -9.99776 966.048 -92.879 -1684.43
lowerback 11.4592 2.39695 2.23349
upperback 0.853903 3.43913 0.201768
thorax -5.4059 1.62357 -1.58727
lowerneck -19.6302 -5.38627 -11.3155
upperneck 31.6008 -7.53789 8.46699
head 15.0973 -3.64585 4.00816
rclavicle 7.64079e-015 -6.4605e-015
rhumerus -31.8457 -10.7552 -81.9849
rradius 32.4124
rwrist 2.91673
rhand -20.9793 7.43862
rfingers 7.12502
rthumb 5.39436 -22.4727
lclavicle 7.64079e-015 -6.4605e-015
lhumerus -36.9467 3.47913 84.783
lradius 34.2439
lwrist -3.45422
lhand -17.5304 24.325
lfingers 7.12502
lthumb 8.72349 54.1248
rfemur 4.38832 0.840781 29.0043
rtibia 18.5667
rfoot -18.8507 -4.08426
rtoes 8.16252
lfemur -26.7383 -4.8798 -19.0808
ltibia 17.1991
lfoot -4.80333 -1.74244
ltoes -34.5452
4466
root 13.8156 17.739 -9.99686 972.539 -92.7484 -1690.84
lowerback 11.4156 2.46336 2.13516
upperback 0.815978 3.51575 0.20794
thorax -5.42481 1.66349 -1.53662
lowerneck -19.7235 -5.35194 -11.2126
upperneck 31.6895 -7.47929 8.34652
head 15.1398 -3.62422 3.95197
rclavicle 1.16041e-014 6.16232e-015
rhumerus -31.6981 -10.5177 -82.0623
rradius 32.6383
rwrist 3.09621
rhand -20.3509 7.58152
rfingers 7.12502
rthumb 6.00102 -22.3135
lclavicle 1.16041e-014 6.16232e-015
lhumerus -37.0571 4.01267 84.4509
lradius 33.7796
lwrist -4.01033
lhand -17.257 24.1117
lfingers 7.12502
lthumb 8.98739 53.9002
rfemur 4.8634 0.731645 28.9082
rtibia 18.027
rfoot -18.7752 -3.72205
rtoes 7.5789
lfemur -26.9153 -2.79399 -19.8292
ltibia 16.2757
lfoot -5.2256 -4.28491
ltoes -33.0571
